<svg xmlns="http://www.w3.org/2000/svg" viewBox="0 0 1200 630" width="1200" height="630">
  <!-- Background -->
  <rect width="1200" height="630" fill="#1F3A2E"/>

  <!-- Decorative large leaf shape (background) -->
  <ellipse cx="980" cy="315" rx="320" ry="420" fill="#FACC15" opacity="0.06" transform="rotate(-15 980 315)"/>
  <ellipse cx="980" cy="315" rx="200" ry="300" fill="#FACC15" opacity="0.06" transform="rotate(-15 980 315)"/>

  <!-- Logo box -->
  <rect x="80" y="72" width="72" height="72" rx="18" fill="#FACC15" opacity="0.12"/>
  <rect x="80" y="72" width="72" height="72" rx="18" fill="none" stroke="#FACC15" stroke-width="2" opacity="0.5"/>
  <path d="M116 83C106 87 98 96 98 106C98 116 104 122 116 122C128 122 134 116 134 106C134 96 126 87 116 83Z" fill="#FACC15"/>
  <line x1="116" y1="86" x2="116" y2="121" stroke="#1F3A2E" stroke-width="2" stroke-linecap="round"/>

  <!-- Main title -->
  <text x="80" y="255" font-family="-apple-system, BlinkMacSystemFont, 'Segoe UI', sans-serif" font-weight="900" font-size="108" letter-spacing="-3" fill="white">Claimify</text>

  <!-- ESG badge -->
  <rect x="83" y="278" width="108" height="38" rx="19" fill="#FACC15"/>
  <text x="137" y="303" font-family="-apple-system, BlinkMacSystemFont, 'Segoe UI', sans-serif" font-weight="800" font-size="18" letter-spacing="3" fill="#1F3A2E" text-anchor="middle">ESG</text>

  <!-- Tagline -->
  <text x="80" y="385" font-family="-apple-system, BlinkMacSystemFont, 'Segoe UI', sans-serif" font-weight="400" font-size="30" fill="rgba(255,255,255,0.6)">Greenwashing detection for oil &amp; gas majors</text>

  <!-- Divider -->
  <line x1="80" y1="420" x2="500" y2="420" stroke="rgba(255,255,255,0.12)" stroke-width="1"/>

  <!-- Score bars -->
  <text x="80" y="458" font-family="-apple-system, BlinkMacSystemFont, 'Segoe UI', sans-serif" font-size="16" fill="rgba(255,255,255,0.4)" letter-spacing="2">WELL SUBSTANTIATED</text>
  <rect x="80" y="468" width="360" height="7" rx="4" fill="rgba(255,255,255,0.08)"/>
  <rect x="80" y="468" width="240" height="7" rx="4" fill="#10B981"/>

  <text x="80" y="502" font-family="-apple-system, BlinkMacSystemFont, 'Segoe UI', sans-serif" font-size="16" fill="rgba(255,255,255,0.4)" letter-spacing="2">WEAKLY SUBSTANTIATED</text>
  <rect x="80" y="512" width="360" height="7" rx="4" fill="rgba(255,255,255,0.08)"/>
  <rect x="80" y="512" width="150" height="7" rx="4" fill="#F59E0B"/>

  <text x="80" y="546" font-family="-apple-system, BlinkMacSystemFont, 'Segoe UI', sans-serif" font-size="16" fill="rgba(255,255,255,0.4)" letter-spacing="2">CONTRADICTED</text>
  <rect x="80" y="556" width="360" height="7" rx="4" fill="rgba(255,255,255,0.08)"/>
  <rect x="80" y="556" width="90" height="7" rx="4" fill="#EF4444"/>
</svg>
